<?xml version="1.0" encoding="UTF-8"?><svg xmlns="http://www.w3.org/2000/svg" xmlns:xlink="http://www.w3.org/1999/xlink" fill-opacity="1" color-rendering="auto" color-interpolation="auto" stroke="black" text-rendering="auto" stroke-linecap="square" width="462" stroke-miterlimit="10" stroke-opacity="1" shape-rendering="auto" fill="black" stroke-dasharray="none" font-weight="normal" stroke-width="1" height="399" font-family="'Dialog'" font-style="normal" stroke-linejoin="miter" font-size="12px" stroke-dashoffset="0" image-rendering="auto">
  <!--Generated by ySVG 2.5-->
  <defs id="genericDefs"/>
  <g>
    <defs id="defs1">
      <linearGradient x1="274" gradientUnits="userSpaceOnUse" x2="374" y1="190.668" y2="221.668" id="linearGradient1" spreadMethod="reflect">
        <stop stop-opacity="1" stop-color="rgb(153,153,153)" offset="0%"/>
        <stop stop-opacity="1" stop-color="silver" offset="100%"/>
      </linearGradient>
      <linearGradient x1="121.8364" gradientUnits="userSpaceOnUse" x2="221.8364" y1="527.666" y2="558.666" id="linearGradient2" spreadMethod="reflect">
        <stop stop-opacity="1" stop-color="rgb(153,153,153)" offset="0%"/>
        <stop stop-opacity="1" stop-color="silver" offset="100%"/>
      </linearGradient>
      <linearGradient x1="360" gradientUnits="userSpaceOnUse" x2="492" y1="361" y2="410" id="linearGradient3" spreadMethod="reflect">
        <stop stop-opacity="1" stop-color="rgb(232,238,247)" offset="0%"/>
        <stop stop-opacity="1" stop-color="rgb(183,201,227)" offset="100%"/>
      </linearGradient>
      <linearGradient x1="156" gradientUnits="userSpaceOnUse" x2="288" y1="361" y2="410" id="linearGradient4" spreadMethod="reflect">
        <stop stop-opacity="1" stop-color="rgb(232,238,247)" offset="0%"/>
        <stop stop-opacity="1" stop-color="rgb(183,201,227)" offset="100%"/>
      </linearGradient>
      <linearGradient x1="452.6729" gradientUnits="userSpaceOnUse" x2="552.6729" y1="527.666" y2="558.666" id="linearGradient5" spreadMethod="reflect">
        <stop stop-opacity="1" stop-color="rgb(153,153,153)" offset="0%"/>
        <stop stop-opacity="1" stop-color="silver" offset="100%"/>
      </linearGradient>
      <clipPath clipPathUnits="userSpaceOnUse" id="clipPath1">
        <path d="M0 0 L462 0 L462 399 L0 399 L0 0 Z"/>
      </clipPath>
      <clipPath clipPathUnits="userSpaceOnUse" id="clipPath2">
        <path d="M106 175 L568 175 L568 574 L106 574 L106 175 Z"/>
      </clipPath>
    </defs>
    <g fill="white" text-rendering="geometricPrecision" shape-rendering="geometricPrecision" transform="translate(-106,-175)" stroke="white">
      <rect x="106" width="462" height="399" y="175" clip-path="url(#clipPath2)" stroke="none"/>
    </g>
    <g fill="url(#linearGradient1)" text-rendering="geometricPrecision" shape-rendering="geometricPrecision" transform="matrix(1,0,0,1,-106,-175)" stroke="url(#linearGradient1)">
      <path d="M274 190.668 L374 190.668 L374 221.668 L274 221.668 Z" clip-path="url(#clipPath2)" stroke="none"/>
    </g>
    <g text-rendering="geometricPrecision" stroke-miterlimit="1.45" shape-rendering="geometricPrecision" transform="matrix(1,0,0,1,-106,-175)" stroke-linecap="butt">
      <path fill="none" d="M274 190.668 L374 190.668 L374 221.668 L274 221.668 Z" clip-path="url(#clipPath2)"/>
      <text x="280.7959" xml:space="preserve" y="210.7031" font-family="sans-serif" clip-path="url(#clipPath2)" stroke="none">Objet/Instance</text>
    </g>
    <g fill="url(#linearGradient2)" text-rendering="geometricPrecision" shape-rendering="geometricPrecision" transform="matrix(1,0,0,1,-106,-175)" stroke="url(#linearGradient2)">
      <path d="M121.8364 527.666 L221.8364 527.666 L221.8364 558.666 L121.8364 558.666 Z" clip-path="url(#clipPath2)" stroke="none"/>
    </g>
    <g text-rendering="geometricPrecision" stroke-miterlimit="1.45" shape-rendering="geometricPrecision" transform="matrix(1,0,0,1,-106,-175)" stroke-linecap="butt">
      <path fill="none" d="M121.8364 527.666 L221.8364 527.666 L221.8364 558.666 L121.8364 558.666 Z" clip-path="url(#clipPath2)"/>
      <text x="128.6323" xml:space="preserve" y="547.7012" font-family="sans-serif" clip-path="url(#clipPath2)" stroke="none">Objet/Instance</text>
    </g>
    <g font-size="15px" stroke-linecap="butt" transform="matrix(1,0,0,1,-106,-175)" text-rendering="geometricPrecision" font-family="sans-serif" shape-rendering="geometricPrecision" stroke-miterlimit="1.45">
      <text x="458.3521" xml:space="preserve" y="340.8359" clip-path="url(#clipPath2)" stroke="none">Classe</text>
    </g>
    <g text-rendering="geometricPrecision" stroke-miterlimit="1.45" shape-rendering="geometricPrecision" transform="matrix(1,0,0,1,-106,-175)" stroke-linecap="butt">
      <rect x="141" y="324.334" clip-path="url(#clipPath2)" fill="none" width="366" rx="4" ry="4" height="100.666"/>
    </g>
    <g fill="url(#linearGradient3)" text-rendering="geometricPrecision" shape-rendering="geometricPrecision" transform="matrix(1,0,0,1,-106,-175)" stroke="url(#linearGradient3)">
      <path d="M360 361 L492 361 L492 410 L360 410 Z" clip-path="url(#clipPath2)" stroke="none"/>
    </g>
    <g text-rendering="geometricPrecision" stroke-miterlimit="1.45" shape-rendering="geometricPrecision" transform="matrix(1,0,0,1,-106,-175)" stroke-linecap="butt">
      <path fill="none" d="M360 361 L492 361 L492 410 L360 410 Z" clip-path="url(#clipPath2)"/>
      <text x="397.6582" xml:space="preserve" y="382.9688" font-family="sans-serif" clip-path="url(#clipPath2)" stroke="none">Méthodes</text>
      <text x="370.333" xml:space="preserve" y="397.1016" font-family="sans-serif" clip-path="url(#clipPath2)" stroke="none">(fonctions, actions)</text>
    </g>
    <g fill="url(#linearGradient4)" text-rendering="geometricPrecision" shape-rendering="geometricPrecision" transform="matrix(1,0,0,1,-106,-175)" stroke="url(#linearGradient4)">
      <path d="M156 361 L288 361 L288 410 L156 410 Z" clip-path="url(#clipPath2)" stroke="none"/>
    </g>
    <g text-rendering="geometricPrecision" stroke-miterlimit="1.45" shape-rendering="geometricPrecision" transform="matrix(1,0,0,1,-106,-175)" stroke-linecap="butt">
      <path fill="none" d="M156 361 L288 361 L288 410 L156 410 Z" clip-path="url(#clipPath2)"/>
      <text x="192.5889" xml:space="preserve" y="382.9688" font-family="sans-serif" clip-path="url(#clipPath2)" stroke="none">Propriétés</text>
      <text x="163.6729" xml:space="preserve" y="397.1016" font-family="sans-serif" clip-path="url(#clipPath2)" stroke="none">(variables, attributs)</text>
    </g>
    <g fill="url(#linearGradient5)" text-rendering="geometricPrecision" shape-rendering="geometricPrecision" transform="matrix(1,0,0,1,-106,-175)" stroke="url(#linearGradient5)">
      <path d="M452.6729 527.666 L552.6729 527.666 L552.6729 558.666 L452.6729 558.666 Z" clip-path="url(#clipPath2)" stroke="none"/>
    </g>
    <g text-rendering="geometricPrecision" stroke-miterlimit="1.45" shape-rendering="geometricPrecision" transform="matrix(1,0,0,1,-106,-175)" stroke-linecap="butt">
      <path fill="none" d="M452.6729 527.666 L552.6729 527.666 L552.6729 558.666 L452.6729 558.666 Z" clip-path="url(#clipPath2)"/>
      <text x="459.4688" xml:space="preserve" y="547.7012" font-family="sans-serif" clip-path="url(#clipPath2)" stroke="none">Objet/Instance</text>
    </g>
    <g text-rendering="geometricPrecision" stroke-miterlimit="1.45" shape-rendering="geometricPrecision" transform="matrix(1,0,0,1,-106,-175)" stroke-linecap="butt">
      <path fill="none" d="M185.8231 527.6777 L278.5426 425.0044" clip-path="url(#clipPath2)"/>
      <path fill="none" d="M324 221.6768 L324 324.355" clip-path="url(#clipPath2)"/>
      <path fill="none" stroke-dasharray="6,2" d="M332.8279 221.6888 L412.056 360.9843" clip-path="url(#clipPath2)"/>
      <path fill="none" stroke-dasharray="6,2" d="M196.8122 527.6727 L386.5244 409.988" clip-path="url(#clipPath2)"/>
      <path fill="none" stroke-dasharray="6,2" d="M315.1721 221.6888 L235.944 360.9843" clip-path="url(#clipPath2)"/>
      <path fill="none" stroke-dasharray="6,2" d="M176.772 527.6534 L214.2154 409.9673" clip-path="url(#clipPath2)"/>
      <path fill="none" stroke-dasharray="6,2" d="M437.924 410.0198 L495.1325 527.6605" clip-path="url(#clipPath2)"/>
      <path fill="none" stroke-dasharray="6,2" d="M265.6153 410.0006 L475.0952 527.6745" clip-path="url(#clipPath2)"/>
      <path fill="none" d="M486.2494 527.6777 L377.3767 425.0044" clip-path="url(#clipPath2)"/>
    </g>
  </g>
</svg>
