<?xml version="1.0" encoding="UTF-8"?><svg xmlns="http://www.w3.org/2000/svg" xmlns:xlink="http://www.w3.org/1999/xlink" fill-opacity="1" color-rendering="auto" color-interpolation="auto" stroke="black" text-rendering="auto" stroke-linecap="square" width="309" stroke-miterlimit="10" stroke-opacity="1" shape-rendering="auto" fill="black" stroke-dasharray="none" font-weight="normal" stroke-width="1" height="361" font-family="'Dialog'" font-style="normal" stroke-linejoin="miter" font-size="12px" stroke-dashoffset="0" image-rendering="auto">
  <!--Generated by ySVG 2.5-->
  <defs id="genericDefs"/>
  <g>
    <defs id="defs1">
      <linearGradient x1="392" gradientUnits="userSpaceOnUse" x2="523" y1="585.72" y2="615.72" id="linearGradient1" spreadMethod="reflect">
        <stop stop-opacity="1" stop-color="rgb(232,238,247)" offset="0%"/>
        <stop stop-opacity="1" stop-color="rgb(183,201,227)" offset="100%"/>
      </linearGradient>
      <linearGradient x1="392" gradientUnits="userSpaceOnUse" x2="523" y1="555.72" y2="585.72" id="linearGradient2" spreadMethod="reflect">
        <stop stop-opacity="1" stop-color="rgb(232,238,247)" offset="0%"/>
        <stop stop-opacity="1" stop-color="rgb(183,201,227)" offset="100%"/>
      </linearGradient>
      <linearGradient x1="392" gradientUnits="userSpaceOnUse" x2="523" y1="452" y2="482" id="linearGradient3" spreadMethod="reflect">
        <stop stop-opacity="1" stop-color="rgb(232,238,247)" offset="0%"/>
        <stop stop-opacity="1" stop-color="rgb(183,201,227)" offset="100%"/>
      </linearGradient>
      <linearGradient x1="392" gradientUnits="userSpaceOnUse" x2="523" y1="422" y2="452" id="linearGradient4" spreadMethod="reflect">
        <stop stop-opacity="1" stop-color="rgb(232,238,247)" offset="0%"/>
        <stop stop-opacity="1" stop-color="rgb(183,201,227)" offset="100%"/>
      </linearGradient>
      <linearGradient x1="392" gradientUnits="userSpaceOnUse" x2="523" y1="392" y2="422" id="linearGradient5" spreadMethod="reflect">
        <stop stop-opacity="1" stop-color="rgb(232,238,247)" offset="0%"/>
        <stop stop-opacity="1" stop-color="rgb(183,201,227)" offset="100%"/>
      </linearGradient>
      <linearGradient x1="392" gradientUnits="userSpaceOnUse" x2="523" y1="615.72" y2="645.72" id="linearGradient6" spreadMethod="reflect">
        <stop stop-opacity="1" stop-color="rgb(232,238,247)" offset="0%"/>
        <stop stop-opacity="1" stop-color="rgb(183,201,227)" offset="100%"/>
      </linearGradient>
      <clipPath clipPathUnits="userSpaceOnUse" id="clipPath1">
        <path d="M0 0 L309 0 L309 361 L0 361 L0 0 Z"/>
      </clipPath>
      <clipPath clipPathUnits="userSpaceOnUse" id="clipPath2">
        <path d="M325 300 L634 300 L634 661 L325 661 L325 300 Z"/>
      </clipPath>
    </defs>
    <g fill="white" text-rendering="geometricPrecision" shape-rendering="geometricPrecision" transform="translate(-325,-300)" stroke="white">
      <rect x="325" width="309" height="361" y="300" clip-path="url(#clipPath2)" stroke="none"/>
    </g>
    <g fill="url(#linearGradient1)" text-rendering="geometricPrecision" shape-rendering="geometricPrecision" transform="matrix(1,0,0,1,-325,-300)" stroke="url(#linearGradient1)">
      <path d="M392 585.72 L523 585.72 L523 615.72 L392 615.72 Z" clip-path="url(#clipPath2)" stroke="none"/>
    </g>
    <g text-rendering="geometricPrecision" stroke-miterlimit="1.45" shape-rendering="geometricPrecision" transform="matrix(1,0,0,1,-325,-300)" stroke-linecap="butt">
      <path fill="none" d="M392 585.72 L523 585.72 L523 615.72 L392 615.72 Z" clip-path="url(#clipPath2)"/>
      <text x="428.2324" xml:space="preserve" y="605.2551" font-family="sans-serif" clip-path="url(#clipPath2)" stroke="none">0x80ff4f2</text>
    </g>
    <g fill="url(#linearGradient2)" text-rendering="geometricPrecision" shape-rendering="geometricPrecision" transform="matrix(1,0,0,1,-325,-300)" stroke="url(#linearGradient2)">
      <path d="M392 555.72 L523 555.72 L523 585.72 L392 585.72 Z" clip-path="url(#clipPath2)" stroke="none"/>
    </g>
    <g text-rendering="geometricPrecision" stroke-miterlimit="1.45" shape-rendering="geometricPrecision" transform="matrix(1,0,0,1,-325,-300)" stroke-linecap="butt">
      <path fill="none" d="M392 555.72 L523 555.72 L523 585.72 L392 585.72 Z" clip-path="url(#clipPath2)"/>
    </g>
    <g fill="url(#linearGradient3)" text-rendering="geometricPrecision" shape-rendering="geometricPrecision" transform="matrix(1,0,0,1,-325,-300)" stroke="url(#linearGradient3)">
      <path d="M392 452 L523 452 L523 482 L392 482 Z" clip-path="url(#clipPath2)" stroke="none"/>
    </g>
    <g text-rendering="geometricPrecision" stroke-miterlimit="1.45" shape-rendering="geometricPrecision" transform="matrix(1,0,0,1,-325,-300)" stroke-linecap="butt">
      <path fill="none" d="M392 452 L523 452 L523 482 L392 482 Z" clip-path="url(#clipPath2)"/>
      <text x="449.9121" xml:space="preserve" y="471.5352" font-family="sans-serif" clip-path="url(#clipPath2)" stroke="none">10</text>
    </g>
    <g fill="url(#linearGradient4)" text-rendering="geometricPrecision" shape-rendering="geometricPrecision" transform="matrix(1,0,0,1,-325,-300)" stroke="url(#linearGradient4)">
      <path d="M392 422 L523 422 L523 452 L392 452 Z" clip-path="url(#clipPath2)" stroke="none"/>
    </g>
    <g text-rendering="geometricPrecision" stroke-miterlimit="1.45" shape-rendering="geometricPrecision" transform="matrix(1,0,0,1,-325,-300)" stroke-linecap="butt">
      <path fill="none" d="M392 422 L523 422 L523 452 L392 452 Z" clip-path="url(#clipPath2)"/>
    </g>
    <g fill="url(#linearGradient5)" text-rendering="geometricPrecision" shape-rendering="geometricPrecision" transform="matrix(1,0,0,1,-325,-300)" stroke="url(#linearGradient5)">
      <path d="M392 392 L523 392 L523 422 L392 422 Z" clip-path="url(#clipPath2)" stroke="none"/>
    </g>
    <g text-rendering="geometricPrecision" stroke-miterlimit="1.45" shape-rendering="geometricPrecision" transform="matrix(1,0,0,1,-325,-300)" stroke-linecap="butt">
      <path fill="none" d="M392 392 L523 392 L523 422 L392 422 Z" clip-path="url(#clipPath2)"/>
    </g>
    <g font-size="16px" stroke-linecap="butt" transform="matrix(1,0,0,1,-325,-300)" text-rendering="geometricPrecision" font-family="sans-serif" shape-rendering="geometricPrecision" stroke-miterlimit="1.45">
      <text x="355.2908" xml:space="preserve" y="473.0469" clip-path="url(#clipPath2)" stroke="none">$v</text>
    </g>
    <g font-size="16px" stroke-linecap="butt" transform="matrix(1,0,0,1,-325,-300)" text-rendering="geometricPrecision" font-family="sans-serif" shape-rendering="geometricPrecision" stroke-miterlimit="1.45">
      <text x="422.1758" xml:space="preserve" y="370.965" clip-path="url(#clipPath2)" stroke="none">Contenu </text>
      <text x="532.6969" xml:space="preserve" y="359.905" clip-path="url(#clipPath2)" stroke="none">Adresses /</text>
      <text x="532.1578" xml:space="preserve" y="378.7487" clip-path="url(#clipPath2)" stroke="none">Références</text>
      <text x="342.1189" xml:space="preserve" y="371.3869" clip-path="url(#clipPath2)" stroke="none">Noms</text>
      <text x="373.6922" xml:space="preserve" y="334.4669" font-weight="bold" clip-path="url(#clipPath2)" stroke="none">Mémoire de l'ordinateur</text>
      <text x="532.2866" xml:space="preserve" y="443.0469" clip-path="url(#clipPath2)" stroke="none">0x80ff4f1</text>
      <text x="532.2866" xml:space="preserve" y="413.0469" clip-path="url(#clipPath2)" stroke="none">0x80ff4f0</text>
      <text x="532.2866" xml:space="preserve" y="473.0469" clip-path="url(#clipPath2)" stroke="none">0x80ff4f2</text>
      <text x="532.9272" xml:space="preserve" y="606.7668" clip-path="url(#clipPath2)" stroke="none">0xff15af6</text>
      <text x="532.9272" xml:space="preserve" y="576.7668" clip-path="url(#clipPath2)" stroke="none">0xff15af5</text>
      <text x="532.9272" xml:space="preserve" y="636.7668" clip-path="url(#clipPath2)" stroke="none">0xff15af7</text>
      <text x="454.9688" xml:space="preserve" y="491.1812" clip-path="url(#clipPath2)" stroke="none">.</text>
      <text x="454.9688" xml:space="preserve" y="510.025" clip-path="url(#clipPath2)" stroke="none">.</text>
      <text x="454.9688" xml:space="preserve" y="528.8688" clip-path="url(#clipPath2)" stroke="none">.</text>
      <text x="454.9688" xml:space="preserve" y="547.7125" clip-path="url(#clipPath2)" stroke="none">.</text>
      <text x="344.6189" xml:space="preserve" y="606.7668" clip-path="url(#clipPath2)" stroke="none">$refv</text>
    </g>
    <g fill="url(#linearGradient6)" text-rendering="geometricPrecision" shape-rendering="geometricPrecision" transform="matrix(1,0,0,1,-325,-300)" stroke="url(#linearGradient6)">
      <path d="M392 615.72 L523 615.72 L523 645.72 L392 645.72 Z" clip-path="url(#clipPath2)" stroke="none"/>
    </g>
    <g text-rendering="geometricPrecision" stroke-miterlimit="1.45" shape-rendering="geometricPrecision" transform="matrix(1,0,0,1,-325,-300)" stroke-linecap="butt">
      <path fill="none" d="M392 615.72 L523 615.72 L523 645.72 L392 645.72 Z" clip-path="url(#clipPath2)"/>
    </g>
    <g text-rendering="geometricPrecision" stroke-miterlimit="1.45" shape-rendering="geometricPrecision" transform="matrix(1,0,0,1,-325,-300)" stroke-linecap="butt">
      <path fill="none" d="M391.9905 600.72 L347.1 526.2 L387.1567 473.3746" clip-path="url(#clipPath2)"/>
      <path d="M391.9905 467 L380.7558 473.5408 L386.5525 474.1714 L388.724 479.5829 Z" clip-path="url(#clipPath2)" stroke="none"/>
    </g>
  </g>
</svg>
