<?xml version="1.0" encoding="UTF-8"?><svg xmlns="http://www.w3.org/2000/svg" xmlns:xlink="http://www.w3.org/1999/xlink" fill-opacity="1" color-rendering="auto" color-interpolation="auto" stroke="black" text-rendering="auto" stroke-linecap="square" width="309" stroke-miterlimit="10" stroke-opacity="1" shape-rendering="auto" fill="black" stroke-dasharray="none" font-weight="normal" stroke-width="1" height="362" font-family="'Dialog'" font-style="normal" stroke-linejoin="miter" font-size="12px" stroke-dashoffset="0" image-rendering="auto">
  <!--Generated by ySVG 2.5-->
  <defs id="genericDefs"/>
  <g>
    <defs id="defs1">
      <linearGradient x1="420.09" gradientUnits="userSpaceOnUse" x2="551.09" y1="611.14" y2="641.14" id="linearGradient1" spreadMethod="reflect">
        <stop stop-opacity="1" stop-color="rgb(232,238,247)" offset="0%"/>
        <stop stop-opacity="1" stop-color="rgb(183,201,227)" offset="100%"/>
      </linearGradient>
      <linearGradient x1="420.09" gradientUnits="userSpaceOnUse" x2="551.09" y1="581.14" y2="611.14" id="linearGradient2" spreadMethod="reflect">
        <stop stop-opacity="1" stop-color="rgb(232,238,247)" offset="0%"/>
        <stop stop-opacity="1" stop-color="rgb(183,201,227)" offset="100%"/>
      </linearGradient>
      <linearGradient x1="420.09" gradientUnits="userSpaceOnUse" x2="551.09" y1="477.42" y2="507.42" id="linearGradient3" spreadMethod="reflect">
        <stop stop-opacity="1" stop-color="rgb(232,238,247)" offset="0%"/>
        <stop stop-opacity="1" stop-color="rgb(183,201,227)" offset="100%"/>
      </linearGradient>
      <linearGradient x1="420.09" gradientUnits="userSpaceOnUse" x2="551.09" y1="447.42" y2="477.42" id="linearGradient4" spreadMethod="reflect">
        <stop stop-opacity="1" stop-color="rgb(232,238,247)" offset="0%"/>
        <stop stop-opacity="1" stop-color="rgb(183,201,227)" offset="100%"/>
      </linearGradient>
      <linearGradient x1="420.09" gradientUnits="userSpaceOnUse" x2="551.09" y1="417.42" y2="447.42" id="linearGradient5" spreadMethod="reflect">
        <stop stop-opacity="1" stop-color="rgb(232,238,247)" offset="0%"/>
        <stop stop-opacity="1" stop-color="rgb(183,201,227)" offset="100%"/>
      </linearGradient>
      <linearGradient x1="420.09" gradientUnits="userSpaceOnUse" x2="551.09" y1="641.14" y2="671.14" id="linearGradient6" spreadMethod="reflect">
        <stop stop-opacity="1" stop-color="rgb(232,238,247)" offset="0%"/>
        <stop stop-opacity="1" stop-color="rgb(183,201,227)" offset="100%"/>
      </linearGradient>
      <clipPath clipPathUnits="userSpaceOnUse" id="clipPath1">
        <path d="M0 0 L309 0 L309 362 L0 362 L0 0 Z"/>
      </clipPath>
      <clipPath clipPathUnits="userSpaceOnUse" id="clipPath2">
        <path d="M353 325 L662 325 L662 687 L353 687 L353 325 Z"/>
      </clipPath>
    </defs>
    <g fill="white" text-rendering="geometricPrecision" shape-rendering="geometricPrecision" transform="translate(-353,-325)" stroke="white">
      <rect x="353" width="309" height="362" y="325" clip-path="url(#clipPath2)" stroke="none"/>
    </g>
    <g fill="url(#linearGradient1)" text-rendering="geometricPrecision" shape-rendering="geometricPrecision" transform="matrix(1,0,0,1,-353,-325)" stroke="url(#linearGradient1)">
      <path d="M420.09 611.14 L551.09 611.14 L551.09 641.14 L420.09 641.14 Z" clip-path="url(#clipPath2)" stroke="none"/>
    </g>
    <g text-rendering="geometricPrecision" stroke-miterlimit="1.45" shape-rendering="geometricPrecision" transform="matrix(1,0,0,1,-353,-325)" stroke-linecap="butt">
      <path fill="none" d="M420.09 611.14 L551.09 611.14 L551.09 641.14 L420.09 641.14 Z" clip-path="url(#clipPath2)"/>
      <text x="456.3224" xml:space="preserve" y="630.6752" font-family="sans-serif" clip-path="url(#clipPath2)" stroke="none">0x80ff4f1</text>
    </g>
    <g fill="url(#linearGradient2)" text-rendering="geometricPrecision" shape-rendering="geometricPrecision" transform="matrix(1,0,0,1,-353,-325)" stroke="url(#linearGradient2)">
      <path d="M420.09 581.14 L551.09 581.14 L551.09 611.14 L420.09 611.14 Z" clip-path="url(#clipPath2)" stroke="none"/>
    </g>
    <g text-rendering="geometricPrecision" stroke-miterlimit="1.45" shape-rendering="geometricPrecision" transform="matrix(1,0,0,1,-353,-325)" stroke-linecap="butt">
      <path fill="none" d="M420.09 581.14 L551.09 581.14 L551.09 611.14 L420.09 611.14 Z" clip-path="url(#clipPath2)"/>
    </g>
    <g fill="url(#linearGradient3)" text-rendering="geometricPrecision" shape-rendering="geometricPrecision" transform="matrix(1,0,0,1,-353,-325)" stroke="url(#linearGradient3)">
      <path d="M420.09 477.42 L551.09 477.42 L551.09 507.42 L420.09 507.42 Z" clip-path="url(#clipPath2)" stroke="none"/>
    </g>
    <g text-rendering="geometricPrecision" stroke-miterlimit="1.45" shape-rendering="geometricPrecision" transform="matrix(1,0,0,1,-353,-325)" stroke-linecap="butt">
      <path fill="none" d="M420.09 477.42 L551.09 477.42 L551.09 507.42 L420.09 507.42 Z" clip-path="url(#clipPath2)"/>
      <text x="478.0021" xml:space="preserve" y="496.9552" font-family="sans-serif" clip-path="url(#clipPath2)" stroke="none">10</text>
    </g>
    <g fill="url(#linearGradient4)" text-rendering="geometricPrecision" shape-rendering="geometricPrecision" transform="matrix(1,0,0,1,-353,-325)" stroke="url(#linearGradient4)">
      <path d="M420.09 447.42 L551.09 447.42 L551.09 477.42 L420.09 477.42 Z" clip-path="url(#clipPath2)" stroke="none"/>
    </g>
    <g text-rendering="geometricPrecision" stroke-miterlimit="1.45" shape-rendering="geometricPrecision" transform="matrix(1,0,0,1,-353,-325)" stroke-linecap="butt">
      <path fill="none" d="M420.09 447.42 L551.09 447.42 L551.09 477.42 L420.09 477.42 Z" clip-path="url(#clipPath2)"/>
      <text x="474.0177" xml:space="preserve" y="466.9552" font-family="sans-serif" clip-path="url(#clipPath2)" stroke="none">"ab"</text>
    </g>
    <g fill="url(#linearGradient5)" text-rendering="geometricPrecision" shape-rendering="geometricPrecision" transform="matrix(1,0,0,1,-353,-325)" stroke="url(#linearGradient5)">
      <path d="M420.09 417.42 L551.09 417.42 L551.09 447.42 L420.09 447.42 Z" clip-path="url(#clipPath2)" stroke="none"/>
    </g>
    <g text-rendering="geometricPrecision" stroke-miterlimit="1.45" shape-rendering="geometricPrecision" transform="matrix(1,0,0,1,-353,-325)" stroke-linecap="butt">
      <path fill="none" d="M420.09 417.42 L551.09 417.42 L551.09 447.42 L420.09 447.42 Z" clip-path="url(#clipPath2)"/>
    </g>
    <g font-size="16px" stroke-linecap="butt" transform="matrix(1,0,0,1,-353,-325)" text-rendering="geometricPrecision" font-family="sans-serif" shape-rendering="geometricPrecision" stroke-miterlimit="1.45">
      <text x="373.2675" xml:space="preserve" y="468.4669" clip-path="url(#clipPath2)" stroke="none">@tab</text>
    </g>
    <g font-size="16px" stroke-linecap="butt" transform="matrix(1,0,0,1,-353,-325)" text-rendering="geometricPrecision" font-family="sans-serif" shape-rendering="geometricPrecision" stroke-miterlimit="1.45">
      <text x="450.2658" xml:space="preserve" y="396.385" clip-path="url(#clipPath2)" stroke="none">Contenu </text>
      <text x="560.7869" xml:space="preserve" y="385.325" clip-path="url(#clipPath2)" stroke="none">Adresses /</text>
      <text x="560.2478" xml:space="preserve" y="404.1688" clip-path="url(#clipPath2)" stroke="none">Références</text>
      <text x="370.2089" xml:space="preserve" y="396.8069" clip-path="url(#clipPath2)" stroke="none">Noms</text>
      <text x="401.7822" xml:space="preserve" y="359.8869" font-weight="bold" clip-path="url(#clipPath2)" stroke="none">Mémoire de l'ordinateur</text>
      <text x="560.3766" xml:space="preserve" y="468.4669" clip-path="url(#clipPath2)" stroke="none">0x80ff4f1</text>
      <text x="560.3766" xml:space="preserve" y="438.4669" clip-path="url(#clipPath2)" stroke="none">0x80ff4f0</text>
      <text x="560.3766" xml:space="preserve" y="498.4669" clip-path="url(#clipPath2)" stroke="none">0x80ff4f2</text>
      <text x="561.0172" xml:space="preserve" y="632.1869" clip-path="url(#clipPath2)" stroke="none">0xff15af6</text>
      <text x="561.0172" xml:space="preserve" y="602.1869" clip-path="url(#clipPath2)" stroke="none">0xff15af5</text>
      <text x="561.0172" xml:space="preserve" y="662.1869" clip-path="url(#clipPath2)" stroke="none">0xff15af7</text>
      <text x="483.0587" xml:space="preserve" y="516.6013" clip-path="url(#clipPath2)" stroke="none">.</text>
      <text x="483.0587" xml:space="preserve" y="535.445" clip-path="url(#clipPath2)" stroke="none">.</text>
      <text x="483.0587" xml:space="preserve" y="554.2888" clip-path="url(#clipPath2)" stroke="none">.</text>
      <text x="483.0587" xml:space="preserve" y="573.1325" clip-path="url(#clipPath2)" stroke="none">.</text>
      <text x="373.8573" xml:space="preserve" y="632.1869" clip-path="url(#clipPath2)" stroke="none">$reft</text>
    </g>
    <g fill="url(#linearGradient6)" text-rendering="geometricPrecision" shape-rendering="geometricPrecision" transform="matrix(1,0,0,1,-353,-325)" stroke="url(#linearGradient6)">
      <path d="M420.09 641.14 L551.09 641.14 L551.09 671.14 L420.09 671.14 Z" clip-path="url(#clipPath2)" stroke="none"/>
    </g>
    <g text-rendering="geometricPrecision" stroke-miterlimit="1.45" shape-rendering="geometricPrecision" transform="matrix(1,0,0,1,-353,-325)" stroke-linecap="butt">
      <path fill="none" d="M420.09 641.14 L551.09 641.14 L551.09 671.14 L420.09 671.14 Z" clip-path="url(#clipPath2)"/>
    </g>
    <g font-size="10px" stroke-linecap="butt" transform="matrix(1,0,0,1,-353,-325)" text-rendering="geometricPrecision" font-family="sans-serif" shape-rendering="geometricPrecision" stroke-miterlimit="1.45">
      <text x="427.0984" xml:space="preserve" y="461.1193" clip-path="url(#clipPath2)" stroke="none">0</text>
      <text x="427.4584" xml:space="preserve" y="489.9593" clip-path="url(#clipPath2)" stroke="none">1</text>
      <path fill="none" d="M420.0805 626.14 L387 540 L416.9426 469.7789" clip-path="url(#clipPath2)"/>
      <path d="M420.0805 462.42 L410.7743 471.4972 L416.5504 470.6988 L419.973 475.4196 Z" clip-path="url(#clipPath2)" stroke="none"/>
    </g>
  </g>
</svg>
