<?xml version="1.0" encoding="UTF-8"?><svg xmlns="http://www.w3.org/2000/svg" xmlns:xlink="http://www.w3.org/1999/xlink" fill-opacity="1" color-rendering="auto" color-interpolation="auto" stroke="black" text-rendering="auto" stroke-linecap="square" width="338" stroke-miterlimit="10" stroke-opacity="1" shape-rendering="auto" fill="black" stroke-dasharray="none" font-weight="normal" stroke-width="1" height="296" font-family="'Dialog'" font-style="normal" stroke-linejoin="miter" font-size="12px" stroke-dashoffset="0" image-rendering="auto">
  <!--Generated by ySVG 2.5-->
  <defs id="genericDefs"/>
  <g>
    <defs id="defs1">
      <linearGradient x1="478.63" gradientUnits="userSpaceOnUse" x2="609.63" y1="662.66" y2="692.66" id="linearGradient1" spreadMethod="reflect">
        <stop stop-opacity="1" stop-color="rgb(232,238,247)" offset="0%"/>
        <stop stop-opacity="1" stop-color="rgb(183,201,227)" offset="100%"/>
      </linearGradient>
      <linearGradient x1="478.63" gradientUnits="userSpaceOnUse" x2="609.63" y1="528.94" y2="558.94" id="linearGradient2" spreadMethod="reflect">
        <stop stop-opacity="1" stop-color="rgb(232,238,247)" offset="0%"/>
        <stop stop-opacity="1" stop-color="rgb(183,201,227)" offset="100%"/>
      </linearGradient>
      <linearGradient x1="478.63" gradientUnits="userSpaceOnUse" x2="609.63" y1="498.94" y2="528.94" id="linearGradient3" spreadMethod="reflect">
        <stop stop-opacity="1" stop-color="rgb(232,238,247)" offset="0%"/>
        <stop stop-opacity="1" stop-color="rgb(183,201,227)" offset="100%"/>
      </linearGradient>
      <linearGradient x1="478.63" gradientUnits="userSpaceOnUse" x2="609.63" y1="595.8" y2="625.8" id="linearGradient4" spreadMethod="reflect">
        <stop stop-opacity="1" stop-color="rgb(232,238,247)" offset="0%"/>
        <stop stop-opacity="1" stop-color="rgb(183,201,227)" offset="100%"/>
      </linearGradient>
      <clipPath clipPathUnits="userSpaceOnUse" id="clipPath1">
        <path d="M0 0 L338 0 L338 296 L0 296 L0 0 Z"/>
      </clipPath>
      <clipPath clipPathUnits="userSpaceOnUse" id="clipPath2">
        <path d="M383 412 L721 412 L721 708 L383 708 L383 412 Z"/>
      </clipPath>
    </defs>
    <g fill="white" text-rendering="geometricPrecision" shape-rendering="geometricPrecision" transform="translate(-383,-412)" stroke="white">
      <rect x="383" width="338" height="296" y="412" clip-path="url(#clipPath2)" stroke="none"/>
    </g>
    <g fill="url(#linearGradient1)" text-rendering="geometricPrecision" shape-rendering="geometricPrecision" transform="matrix(1,0,0,1,-383,-412)" stroke="url(#linearGradient1)">
      <path d="M478.63 662.66 L609.63 662.66 L609.63 692.66 L478.63 692.66 Z" clip-path="url(#clipPath2)" stroke="none"/>
    </g>
    <g text-rendering="geometricPrecision" stroke-miterlimit="1.45" shape-rendering="geometricPrecision" transform="matrix(1,0,0,1,-383,-412)" stroke-linecap="butt">
      <path fill="none" d="M478.63 662.66 L609.63 662.66 L609.63 692.66 L478.63 692.66 Z" clip-path="url(#clipPath2)"/>
      <text x="514.8624" xml:space="preserve" y="682.1951" font-family="sans-serif" clip-path="url(#clipPath2)" stroke="none">0x80ff4f1</text>
    </g>
    <g fill="url(#linearGradient2)" text-rendering="geometricPrecision" shape-rendering="geometricPrecision" transform="matrix(1,0,0,1,-383,-412)" stroke="url(#linearGradient2)">
      <path d="M478.63 528.94 L609.63 528.94 L609.63 558.94 L478.63 558.94 Z" clip-path="url(#clipPath2)" stroke="none"/>
    </g>
    <g text-rendering="geometricPrecision" stroke-miterlimit="1.45" shape-rendering="geometricPrecision" transform="matrix(1,0,0,1,-383,-412)" stroke-linecap="butt">
      <path fill="none" d="M478.63 528.94 L609.63 528.94 L609.63 558.94 L478.63 558.94 Z" clip-path="url(#clipPath2)"/>
      <text x="528.9542" xml:space="preserve" y="548.4752" font-family="sans-serif" clip-path="url(#clipPath2)" stroke="none">2000</text>
    </g>
    <g fill="url(#linearGradient3)" text-rendering="geometricPrecision" shape-rendering="geometricPrecision" transform="matrix(1,0,0,1,-383,-412)" stroke="url(#linearGradient3)">
      <path d="M478.63 498.94 L609.63 498.94 L609.63 528.94 L478.63 528.94 Z" clip-path="url(#clipPath2)" stroke="none"/>
    </g>
    <g text-rendering="geometricPrecision" stroke-miterlimit="1.45" shape-rendering="geometricPrecision" transform="matrix(1,0,0,1,-383,-412)" stroke-linecap="butt">
      <path fill="none" d="M478.63 498.94 L609.63 498.94 L609.63 528.94 L478.63 528.94 Z" clip-path="url(#clipPath2)"/>
      <text x="508.338" xml:space="preserve" y="518.4752" font-family="sans-serif" clip-path="url(#clipPath2)" stroke="none">Jean Dupont</text>
    </g>
    <g font-size="16px" stroke-linecap="butt" transform="matrix(1,0,0,1,-383,-412)" text-rendering="geometricPrecision" font-family="sans-serif" shape-rendering="geometricPrecision" stroke-miterlimit="1.45">
      <text x="400.4169" xml:space="preserve" y="519.9869" clip-path="url(#clipPath2)" stroke="none">Employe</text>
    </g>
    <g font-size="16px" stroke-linecap="butt" transform="matrix(1,0,0,1,-383,-412)" text-rendering="geometricPrecision" font-family="sans-serif" shape-rendering="geometricPrecision" stroke-miterlimit="1.45">
      <text x="508.8058" xml:space="preserve" y="482.705" clip-path="url(#clipPath2)" stroke="none">Contenu </text>
      <text x="619.3269" xml:space="preserve" y="471.645" clip-path="url(#clipPath2)" stroke="none">Adresses /</text>
      <text x="618.7878" xml:space="preserve" y="490.4887" clip-path="url(#clipPath2)" stroke="none">Références</text>
      <text x="428.7489" xml:space="preserve" y="483.1269" clip-path="url(#clipPath2)" stroke="none">Noms</text>
      <text x="460.3222" xml:space="preserve" y="446.2069" font-weight="bold" clip-path="url(#clipPath2)" stroke="none">Mémoire de l'ordinateur</text>
      <text x="618.9166" xml:space="preserve" y="519.9869" clip-path="url(#clipPath2)" stroke="none">0x80ff4f1</text>
      <text x="618.9166" xml:space="preserve" y="549.9869" clip-path="url(#clipPath2)" stroke="none">0x80ff4f2</text>
      <text x="619.5572" xml:space="preserve" y="683.7068" clip-path="url(#clipPath2)" stroke="none">0xff15af6</text>
      <text x="618.0806" xml:space="preserve" y="616.8469" clip-path="url(#clipPath2)" stroke="none">0xaf65af5</text>
      <text x="541.5988" xml:space="preserve" y="568.1231" clip-path="url(#clipPath2)" stroke="none">.</text>
      <text x="541.5988" xml:space="preserve" y="586.9669" clip-path="url(#clipPath2)" stroke="none">.</text>
      <text x="541.5988" xml:space="preserve" y="605.8106" clip-path="url(#clipPath2)" stroke="none">.</text>
      <text x="413.12" xml:space="preserve" y="683.7068" clip-path="url(#clipPath2)" stroke="none">$e1_bis</text>
      <text x="484.3849" xml:space="preserve" font-size="10px" y="510.2033" clip-path="url(#clipPath2)" stroke="none">Nom	</text>
      <text x="482.9089" xml:space="preserve" font-size="10px" y="539.2849" clip-path="url(#clipPath2)" stroke="none">Salaire</text>
    </g>
    <g fill="url(#linearGradient4)" text-rendering="geometricPrecision" shape-rendering="geometricPrecision" transform="matrix(1,0,0,1,-383,-412)" stroke="url(#linearGradient4)">
      <path d="M478.63 595.8 L609.63 595.8 L609.63 625.8 L478.63 625.8 Z" clip-path="url(#clipPath2)" stroke="none"/>
    </g>
    <g text-rendering="geometricPrecision" stroke-miterlimit="1.45" shape-rendering="geometricPrecision" transform="matrix(1,0,0,1,-383,-412)" stroke-linecap="butt">
      <path fill="none" d="M478.63 595.8 L609.63 595.8 L609.63 625.8 L478.63 625.8 Z" clip-path="url(#clipPath2)"/>
      <text x="514.8624" xml:space="preserve" y="615.3351" font-family="sans-serif" clip-path="url(#clipPath2)" stroke="none">0x80ff4f1</text>
    </g>
    <g font-size="16px" stroke-linecap="butt" transform="matrix(1,0,0,1,-383,-412)" text-rendering="geometricPrecision" font-family="sans-serif" shape-rendering="geometricPrecision" stroke-miterlimit="1.45">
      <text x="541.5988" xml:space="preserve" y="635.255" clip-path="url(#clipPath2)" stroke="none">.</text>
      <text x="541.5988" xml:space="preserve" y="654.0988" clip-path="url(#clipPath2)" stroke="none">.</text>
      <text x="436.5458" xml:space="preserve" y="616.8469" clip-path="url(#clipPath2)" stroke="none">$e1</text>
      <path fill="none" d="M478.6205 677.66 L408.74 599.52 L473.8756 511.2632" clip-path="url(#clipPath2)"/>
      <path d="M478.6262 504.8264 L467.4774 511.5125 L473.2818 512.0678 L475.5234 517.4507 Z" clip-path="url(#clipPath2)" stroke="none"/>
      <path fill="none" d="M478.6205 610.8 L451.8 576.6 L475.4725 521.2946" clip-path="url(#clipPath2)"/>
      <path d="M478.6205 513.94 L469.3018 523.0044 L475.079 522.2139 L478.4951 526.9394 Z" clip-path="url(#clipPath2)" stroke="none"/>
    </g>
  </g>
</svg>
