<?xml version="1.0" encoding="UTF-8"?><svg xmlns="http://www.w3.org/2000/svg" xmlns:xlink="http://www.w3.org/1999/xlink" fill-opacity="1" color-rendering="auto" color-interpolation="auto" stroke="black" text-rendering="auto" stroke-linecap="square" width="321" stroke-miterlimit="10" stroke-opacity="1" shape-rendering="auto" fill="black" stroke-dasharray="none" font-weight="normal" stroke-width="1" height="361" font-family="'Dialog'" font-style="normal" stroke-linejoin="miter" font-size="12px" stroke-dashoffset="0" image-rendering="auto">
  <!--Generated by ySVG 2.5-->
  <defs id="genericDefs"/>
  <g>
    <defs id="defs1">
      <linearGradient x1="448.27" gradientUnits="userSpaceOnUse" x2="579.27" y1="636.98" y2="666.98" id="linearGradient1" spreadMethod="reflect">
        <stop stop-opacity="1" stop-color="rgb(232,238,247)" offset="0%"/>
        <stop stop-opacity="1" stop-color="rgb(183,201,227)" offset="100%"/>
      </linearGradient>
      <linearGradient x1="448.27" gradientUnits="userSpaceOnUse" x2="579.27" y1="606.98" y2="636.98" id="linearGradient2" spreadMethod="reflect">
        <stop stop-opacity="1" stop-color="rgb(232,238,247)" offset="0%"/>
        <stop stop-opacity="1" stop-color="rgb(183,201,227)" offset="100%"/>
      </linearGradient>
      <linearGradient x1="448.27" gradientUnits="userSpaceOnUse" x2="579.27" y1="503.26" y2="533.26" id="linearGradient3" spreadMethod="reflect">
        <stop stop-opacity="1" stop-color="rgb(232,238,247)" offset="0%"/>
        <stop stop-opacity="1" stop-color="rgb(183,201,227)" offset="100%"/>
      </linearGradient>
      <linearGradient x1="448.27" gradientUnits="userSpaceOnUse" x2="579.27" y1="473.26" y2="503.26" id="linearGradient4" spreadMethod="reflect">
        <stop stop-opacity="1" stop-color="rgb(232,238,247)" offset="0%"/>
        <stop stop-opacity="1" stop-color="rgb(183,201,227)" offset="100%"/>
      </linearGradient>
      <linearGradient x1="448.27" gradientUnits="userSpaceOnUse" x2="579.27" y1="443.26" y2="473.26" id="linearGradient5" spreadMethod="reflect">
        <stop stop-opacity="1" stop-color="rgb(232,238,247)" offset="0%"/>
        <stop stop-opacity="1" stop-color="rgb(183,201,227)" offset="100%"/>
      </linearGradient>
      <linearGradient x1="448.27" gradientUnits="userSpaceOnUse" x2="579.27" y1="666.98" y2="696.98" id="linearGradient6" spreadMethod="reflect">
        <stop stop-opacity="1" stop-color="rgb(232,238,247)" offset="0%"/>
        <stop stop-opacity="1" stop-color="rgb(183,201,227)" offset="100%"/>
      </linearGradient>
      <clipPath clipPathUnits="userSpaceOnUse" id="clipPath1">
        <path d="M0 0 L321 0 L321 361 L0 361 L0 0 Z"/>
      </clipPath>
      <clipPath clipPathUnits="userSpaceOnUse" id="clipPath2">
        <path d="M369 351 L690 351 L690 712 L369 712 L369 351 Z"/>
      </clipPath>
    </defs>
    <g fill="white" text-rendering="geometricPrecision" shape-rendering="geometricPrecision" transform="translate(-369,-351)" stroke="white">
      <rect x="369" width="321" height="361" y="351" clip-path="url(#clipPath2)" stroke="none"/>
    </g>
    <g fill="url(#linearGradient1)" text-rendering="geometricPrecision" shape-rendering="geometricPrecision" transform="matrix(1,0,0,1,-369,-351)" stroke="url(#linearGradient1)">
      <path d="M448.27 636.98 L579.27 636.98 L579.27 666.98 L448.27 666.98 Z" clip-path="url(#clipPath2)" stroke="none"/>
    </g>
    <g text-rendering="geometricPrecision" stroke-miterlimit="1.45" shape-rendering="geometricPrecision" transform="matrix(1,0,0,1,-369,-351)" stroke-linecap="butt">
      <path fill="none" d="M448.27 636.98 L579.27 636.98 L579.27 666.98 L448.27 666.98 Z" clip-path="url(#clipPath2)"/>
      <text x="484.5024" xml:space="preserve" y="656.5151" font-family="sans-serif" clip-path="url(#clipPath2)" stroke="none">0x80ff4f1</text>
    </g>
    <g fill="url(#linearGradient2)" text-rendering="geometricPrecision" shape-rendering="geometricPrecision" transform="matrix(1,0,0,1,-369,-351)" stroke="url(#linearGradient2)">
      <path d="M448.27 606.98 L579.27 606.98 L579.27 636.98 L448.27 636.98 Z" clip-path="url(#clipPath2)" stroke="none"/>
    </g>
    <g text-rendering="geometricPrecision" stroke-miterlimit="1.45" shape-rendering="geometricPrecision" transform="matrix(1,0,0,1,-369,-351)" stroke-linecap="butt">
      <path fill="none" d="M448.27 606.98 L579.27 606.98 L579.27 636.98 L448.27 636.98 Z" clip-path="url(#clipPath2)"/>
    </g>
    <g fill="url(#linearGradient3)" text-rendering="geometricPrecision" shape-rendering="geometricPrecision" transform="matrix(1,0,0,1,-369,-351)" stroke="url(#linearGradient3)">
      <path d="M448.27 503.26 L579.27 503.26 L579.27 533.26 L448.27 533.26 Z" clip-path="url(#clipPath2)" stroke="none"/>
    </g>
    <g text-rendering="geometricPrecision" stroke-miterlimit="1.45" shape-rendering="geometricPrecision" transform="matrix(1,0,0,1,-369,-351)" stroke-linecap="butt">
      <path fill="none" d="M448.27 503.26 L579.27 503.26 L579.27 533.26 L448.27 533.26 Z" clip-path="url(#clipPath2)"/>
      <text x="506.1821" xml:space="preserve" y="522.7952" font-family="sans-serif" clip-path="url(#clipPath2)" stroke="none">70</text>
    </g>
    <g fill="url(#linearGradient4)" text-rendering="geometricPrecision" shape-rendering="geometricPrecision" transform="matrix(1,0,0,1,-369,-351)" stroke="url(#linearGradient4)">
      <path d="M448.27 473.26 L579.27 473.26 L579.27 503.26 L448.27 503.26 Z" clip-path="url(#clipPath2)" stroke="none"/>
    </g>
    <g text-rendering="geometricPrecision" stroke-miterlimit="1.45" shape-rendering="geometricPrecision" transform="matrix(1,0,0,1,-369,-351)" stroke-linecap="butt">
      <path fill="none" d="M448.27 473.26 L579.27 473.26 L579.27 503.26 L448.27 503.26 Z" clip-path="url(#clipPath2)"/>
      <text x="506.1821" xml:space="preserve" y="492.7952" font-family="sans-serif" clip-path="url(#clipPath2)" stroke="none">10</text>
    </g>
    <g fill="url(#linearGradient5)" text-rendering="geometricPrecision" shape-rendering="geometricPrecision" transform="matrix(1,0,0,1,-369,-351)" stroke="url(#linearGradient5)">
      <path d="M448.27 443.26 L579.27 443.26 L579.27 473.26 L448.27 473.26 Z" clip-path="url(#clipPath2)" stroke="none"/>
    </g>
    <g text-rendering="geometricPrecision" stroke-miterlimit="1.45" shape-rendering="geometricPrecision" transform="matrix(1,0,0,1,-369,-351)" stroke-linecap="butt">
      <path fill="none" d="M448.27 443.26 L579.27 443.26 L579.27 473.26 L448.27 473.26 Z" clip-path="url(#clipPath2)"/>
    </g>
    <g font-size="16px" stroke-linecap="butt" transform="matrix(1,0,0,1,-369,-351)" text-rendering="geometricPrecision" font-family="sans-serif" shape-rendering="geometricPrecision" stroke-miterlimit="1.45">
      <text x="386.9866" xml:space="preserve" y="494.3069" clip-path="url(#clipPath2)" stroke="none">%hash</text>
    </g>
    <g font-size="16px" stroke-linecap="butt" transform="matrix(1,0,0,1,-369,-351)" text-rendering="geometricPrecision" font-family="sans-serif" shape-rendering="geometricPrecision" stroke-miterlimit="1.45">
      <text x="478.4458" xml:space="preserve" y="422.225" clip-path="url(#clipPath2)" stroke="none">Contenu </text>
      <text x="588.9669" xml:space="preserve" y="411.165" clip-path="url(#clipPath2)" stroke="none">Adresses /</text>
      <text x="588.4278" xml:space="preserve" y="430.0088" clip-path="url(#clipPath2)" stroke="none">Références</text>
      <text x="398.3889" xml:space="preserve" y="422.6469" clip-path="url(#clipPath2)" stroke="none">Noms</text>
      <text x="429.9622" xml:space="preserve" y="385.7269" font-weight="bold" clip-path="url(#clipPath2)" stroke="none">Mémoire de l'ordinateur</text>
      <text x="588.5566" xml:space="preserve" y="494.3069" clip-path="url(#clipPath2)" stroke="none">0x80ff4f1</text>
      <text x="588.5566" xml:space="preserve" y="464.3069" clip-path="url(#clipPath2)" stroke="none">0x80ff4f0</text>
      <text x="588.5566" xml:space="preserve" y="524.3069" clip-path="url(#clipPath2)" stroke="none">0x80ff4f2</text>
      <text x="589.1972" xml:space="preserve" y="658.0269" clip-path="url(#clipPath2)" stroke="none">0xff15af6</text>
      <text x="589.1972" xml:space="preserve" y="628.0269" clip-path="url(#clipPath2)" stroke="none">0xff15af5</text>
      <text x="589.1972" xml:space="preserve" y="688.0269" clip-path="url(#clipPath2)" stroke="none">0xff15af7</text>
      <text x="511.2387" xml:space="preserve" y="542.4412" clip-path="url(#clipPath2)" stroke="none">.</text>
      <text x="511.2387" xml:space="preserve" y="561.285" clip-path="url(#clipPath2)" stroke="none">.</text>
      <text x="511.2387" xml:space="preserve" y="580.1287" clip-path="url(#clipPath2)" stroke="none">.</text>
      <text x="511.2387" xml:space="preserve" y="598.9725" clip-path="url(#clipPath2)" stroke="none">.</text>
      <text x="400.0647" xml:space="preserve" y="658.0269" clip-path="url(#clipPath2)" stroke="none">$refh</text>
    </g>
    <g fill="url(#linearGradient6)" text-rendering="geometricPrecision" shape-rendering="geometricPrecision" transform="matrix(1,0,0,1,-369,-351)" stroke="url(#linearGradient6)">
      <path d="M448.27 666.98 L579.27 666.98 L579.27 696.98 L448.27 696.98 Z" clip-path="url(#clipPath2)" stroke="none"/>
    </g>
    <g text-rendering="geometricPrecision" stroke-miterlimit="1.45" shape-rendering="geometricPrecision" transform="matrix(1,0,0,1,-369,-351)" stroke-linecap="butt">
      <path fill="none" d="M448.27 666.98 L579.27 666.98 L579.27 696.98 L448.27 696.98 Z" clip-path="url(#clipPath2)"/>
    </g>
    <g font-size="10px" stroke-linecap="butt" transform="matrix(1,0,0,1,-369,-351)" text-rendering="geometricPrecision" font-family="sans-serif" shape-rendering="geometricPrecision" stroke-miterlimit="1.45">
      <text x="452.1349" xml:space="preserve" y="486.9593" clip-path="url(#clipPath2)" stroke="none">Jean</text>
      <text x="453.2601" xml:space="preserve" y="515.7993" clip-path="url(#clipPath2)" stroke="none">Jacques</text>
      <path fill="none" d="M448.2605 651.98 L415.18 565.84 L445.1226 495.6189" clip-path="url(#clipPath2)"/>
      <path d="M448.2605 488.26 L438.9543 497.3372 L444.7303 496.5388 L448.153 501.2596 Z" clip-path="url(#clipPath2)" stroke="none"/>
    </g>
  </g>
</svg>
