<?xml version="1.0" encoding="UTF-8"?><svg xmlns="http://www.w3.org/2000/svg" xmlns:xlink="http://www.w3.org/1999/xlink" fill-opacity="1" color-rendering="auto" color-interpolation="auto" stroke="black" text-rendering="auto" stroke-linecap="square" width="341" stroke-miterlimit="10" stroke-opacity="1" shape-rendering="auto" fill="black" stroke-dasharray="none" font-weight="normal" stroke-width="1" height="340" font-family="'Dialog'" font-style="normal" stroke-linejoin="miter" font-size="12px" stroke-dashoffset="0" image-rendering="auto">
  <!--Generated by ySVG 2.5-->
  <defs id="genericDefs"/>
  <g>
    <defs id="defs1">
      <linearGradient x1="448.27" gradientUnits="userSpaceOnUse" x2="579.27" y1="608.89" y2="638.89" id="linearGradient1" spreadMethod="reflect">
        <stop stop-opacity="1" stop-color="rgb(232,238,247)" offset="0%"/>
        <stop stop-opacity="1" stop-color="rgb(183,201,227)" offset="100%"/>
      </linearGradient>
      <linearGradient x1="448.27" gradientUnits="userSpaceOnUse" x2="579.27" y1="503.26" y2="533.26" id="linearGradient2" spreadMethod="reflect">
        <stop stop-opacity="1" stop-color="rgb(232,238,247)" offset="0%"/>
        <stop stop-opacity="1" stop-color="rgb(183,201,227)" offset="100%"/>
      </linearGradient>
      <linearGradient x1="448.27" gradientUnits="userSpaceOnUse" x2="579.27" y1="473.26" y2="503.26" id="linearGradient3" spreadMethod="reflect">
        <stop stop-opacity="1" stop-color="rgb(232,238,247)" offset="0%"/>
        <stop stop-opacity="1" stop-color="rgb(183,201,227)" offset="100%"/>
      </linearGradient>
      <linearGradient x1="448.27" gradientUnits="userSpaceOnUse" x2="579.27" y1="533.26" y2="563.26" id="linearGradient4" spreadMethod="reflect">
        <stop stop-opacity="1" stop-color="rgb(232,238,247)" offset="0%"/>
        <stop stop-opacity="1" stop-color="rgb(183,201,227)" offset="100%"/>
      </linearGradient>
      <linearGradient x1="448.27" gradientUnits="userSpaceOnUse" x2="579.27" y1="676.36" y2="706.36" id="linearGradient5" spreadMethod="reflect">
        <stop stop-opacity="1" stop-color="rgb(232,238,247)" offset="0%"/>
        <stop stop-opacity="1" stop-color="rgb(183,201,227)" offset="100%"/>
      </linearGradient>
      <clipPath clipPathUnits="userSpaceOnUse" id="clipPath1">
        <path d="M0 0 L341 0 L341 340 L0 340 L0 0 Z"/>
      </clipPath>
      <clipPath clipPathUnits="userSpaceOnUse" id="clipPath2">
        <path d="M349 382 L690 382 L690 722 L349 722 L349 382 Z"/>
      </clipPath>
    </defs>
    <g fill="white" text-rendering="geometricPrecision" shape-rendering="geometricPrecision" transform="translate(-349,-382)" stroke="white">
      <rect x="349" width="341" height="340" y="382" clip-path="url(#clipPath2)" stroke="none"/>
    </g>
    <g fill="url(#linearGradient1)" text-rendering="geometricPrecision" shape-rendering="geometricPrecision" transform="matrix(1,0,0,1,-349,-382)" stroke="url(#linearGradient1)">
      <path d="M448.27 608.89 L579.27 608.89 L579.27 638.89 L448.27 638.89 Z" clip-path="url(#clipPath2)" stroke="none"/>
    </g>
    <g text-rendering="geometricPrecision" stroke-miterlimit="1.45" shape-rendering="geometricPrecision" transform="matrix(1,0,0,1,-349,-382)" stroke-linecap="butt">
      <path fill="none" d="M448.27 608.89 L579.27 608.89 L579.27 638.89 L448.27 638.89 Z" clip-path="url(#clipPath2)"/>
      <text x="484.5024" xml:space="preserve" y="628.4252" font-family="sans-serif" clip-path="url(#clipPath2)" stroke="none">0x80ff4f1</text>
    </g>
    <g fill="url(#linearGradient2)" text-rendering="geometricPrecision" shape-rendering="geometricPrecision" transform="matrix(1,0,0,1,-349,-382)" stroke="url(#linearGradient2)">
      <path d="M448.27 503.26 L579.27 503.26 L579.27 533.26 L448.27 533.26 Z" clip-path="url(#clipPath2)" stroke="none"/>
    </g>
    <g text-rendering="geometricPrecision" stroke-miterlimit="1.45" shape-rendering="geometricPrecision" transform="matrix(1,0,0,1,-349,-382)" stroke-linecap="butt">
      <path fill="none" d="M448.27 503.26 L579.27 503.26 L579.27 533.26 L448.27 533.26 Z" clip-path="url(#clipPath2)"/>
      <text x="506.1821" xml:space="preserve" y="522.7952" font-family="sans-serif" clip-path="url(#clipPath2)" stroke="none">10</text>
    </g>
    <g fill="url(#linearGradient3)" text-rendering="geometricPrecision" shape-rendering="geometricPrecision" transform="matrix(1,0,0,1,-349,-382)" stroke="url(#linearGradient3)">
      <path d="M448.27 473.26 L579.27 473.26 L579.27 503.26 L448.27 503.26 Z" clip-path="url(#clipPath2)" stroke="none"/>
    </g>
    <g text-rendering="geometricPrecision" stroke-miterlimit="1.45" shape-rendering="geometricPrecision" transform="matrix(1,0,0,1,-349,-382)" stroke-linecap="butt">
      <path fill="none" d="M448.27 473.26 L579.27 473.26 L579.27 503.26 L448.27 503.26 Z" clip-path="url(#clipPath2)"/>
      <text x="495.0669" xml:space="preserve" y="492.7952" font-family="sans-serif" clip-path="url(#clipPath2)" stroke="none">"hello"</text>
    </g>
    <g font-size="16px" stroke-linecap="butt" transform="matrix(1,0,0,1,-349,-382)" text-rendering="geometricPrecision" font-family="sans-serif" shape-rendering="geometricPrecision" stroke-miterlimit="1.45">
      <text x="401.4475" xml:space="preserve" y="494.3069" clip-path="url(#clipPath2)" stroke="none">@tab</text>
    </g>
    <g font-size="16px" stroke-linecap="butt" transform="matrix(1,0,0,1,-349,-382)" text-rendering="geometricPrecision" font-family="sans-serif" shape-rendering="geometricPrecision" stroke-miterlimit="1.45">
      <text x="478.4458" xml:space="preserve" y="453.475" clip-path="url(#clipPath2)" stroke="none">Contenu </text>
      <text x="588.9669" xml:space="preserve" y="442.415" clip-path="url(#clipPath2)" stroke="none">Adresses /</text>
      <text x="588.4278" xml:space="preserve" y="461.2588" clip-path="url(#clipPath2)" stroke="none">Références</text>
      <text x="398.3889" xml:space="preserve" y="453.8969" clip-path="url(#clipPath2)" stroke="none">Noms</text>
      <text x="429.9622" xml:space="preserve" y="416.9769" font-weight="bold" clip-path="url(#clipPath2)" stroke="none">Mémoire de l'ordinateur</text>
      <text x="588.5566" xml:space="preserve" y="494.3069" clip-path="url(#clipPath2)" stroke="none">0x80ff4f1</text>
      <text x="588.5566" xml:space="preserve" y="524.3069" clip-path="url(#clipPath2)" stroke="none">0x80ff4f2</text>
      <text x="589.1972" xml:space="preserve" y="629.9369" clip-path="url(#clipPath2)" stroke="none">0xff15af6</text>
      <text x="593.4316" xml:space="preserve" y="697.4069" clip-path="url(#clipPath2)" stroke="none">0xffffaf7</text>
      <text x="511.2387" xml:space="preserve" y="542.4412" clip-path="url(#clipPath2)" stroke="none">.</text>
      <text x="511.2387" xml:space="preserve" y="561.285" clip-path="url(#clipPath2)" stroke="none">.</text>
      <text x="511.2387" xml:space="preserve" y="580.1287" clip-path="url(#clipPath2)" stroke="none">.</text>
      <text x="511.2387" xml:space="preserve" y="598.9725" clip-path="url(#clipPath2)" stroke="none">.</text>
      <text x="405.0295" xml:space="preserve" y="629.9369" clip-path="url(#clipPath2)" stroke="none">$ref</text>
      <text x="455.2784" xml:space="preserve" font-size="10px" y="486.9593" clip-path="url(#clipPath2)" stroke="none">0</text>
      <text x="455.6384" xml:space="preserve" font-size="10px" y="515.7993" clip-path="url(#clipPath2)" stroke="none">1</text>
    </g>
    <g fill="url(#linearGradient4)" text-rendering="geometricPrecision" shape-rendering="geometricPrecision" transform="matrix(1,0,0,1,-349,-382)" stroke="url(#linearGradient4)">
      <path d="M448.27 533.26 L579.27 533.26 L579.27 563.26 L448.27 563.26 Z" clip-path="url(#clipPath2)" stroke="none"/>
    </g>
    <g text-rendering="geometricPrecision" stroke-miterlimit="1.45" shape-rendering="geometricPrecision" transform="matrix(1,0,0,1,-349,-382)" stroke-linecap="butt">
      <path fill="none" d="M448.27 533.26 L579.27 533.26 L579.27 563.26 L448.27 563.26 Z" clip-path="url(#clipPath2)"/>
      <text x="506.5044" xml:space="preserve" y="552.7952" font-family="sans-serif" clip-path="url(#clipPath2)" stroke="none">-2</text>
    </g>
    <g font-size="10px" stroke-linecap="butt" transform="matrix(1,0,0,1,-349,-382)" text-rendering="geometricPrecision" font-family="sans-serif" shape-rendering="geometricPrecision" stroke-miterlimit="1.45">
      <text x="454.6856" xml:space="preserve" y="547.1865" clip-path="url(#clipPath2)" stroke="none">2</text>
      <text x="588.5566" xml:space="preserve" font-size="16px" y="554.3069" clip-path="url(#clipPath2)" stroke="none">0x80ff4f3</text>
      <text x="511.2387" xml:space="preserve" font-size="16px" y="647.835" clip-path="url(#clipPath2)" stroke="none">.</text>
      <text x="511.2387" xml:space="preserve" font-size="16px" y="666.6788" clip-path="url(#clipPath2)" stroke="none">.</text>
    </g>
    <g fill="url(#linearGradient5)" text-rendering="geometricPrecision" shape-rendering="geometricPrecision" transform="matrix(1,0,0,1,-349,-382)" stroke="url(#linearGradient5)">
      <path d="M448.27 676.36 L579.27 676.36 L579.27 706.36 L448.27 706.36 Z" clip-path="url(#clipPath2)" stroke="none"/>
    </g>
    <g text-rendering="geometricPrecision" stroke-miterlimit="1.45" shape-rendering="geometricPrecision" transform="matrix(1,0,0,1,-349,-382)" stroke-linecap="butt">
      <path fill="none" d="M448.27 676.36 L579.27 676.36 L579.27 706.36 L448.27 706.36 Z" clip-path="url(#clipPath2)"/>
      <text x="484.5024" xml:space="preserve" y="695.8951" font-family="sans-serif" clip-path="url(#clipPath2)" stroke="none">0x80ff4f1</text>
    </g>
    <g font-size="16px" stroke-linecap="butt" transform="matrix(1,0,0,1,-349,-382)" text-rendering="geometricPrecision" font-family="sans-serif" shape-rendering="geometricPrecision" stroke-miterlimit="1.45">
      <text x="386.3342" xml:space="preserve" y="697.4069" clip-path="url(#clipPath2)" stroke="none">$reftab</text>
      <path fill="none" d="M448.2605 623.89 L415.18 565.84 L445.1226 495.6189" clip-path="url(#clipPath2)"/>
      <path d="M448.2605 488.26 L438.9543 497.3372 L444.7303 496.5388 L448.153 501.2596 Z" clip-path="url(#clipPath2)" stroke="none"/>
      <path fill="none" d="M448.2605 691.36 L364.0055 609.4843 L443.8904 487.4267" clip-path="url(#clipPath2)"/>
      <path d="M448.2714 480.7329 L437.5163 488.0355 L443.3427 488.2635 L445.8835 493.5117 Z" clip-path="url(#clipPath2)" stroke="none"/>
    </g>
  </g>
</svg>
