<?xml version="1.0" encoding="UTF-8"?><svg xmlns="http://www.w3.org/2000/svg" xmlns:xlink="http://www.w3.org/1999/xlink" fill-opacity="1" color-rendering="auto" color-interpolation="auto" stroke="black" text-rendering="auto" stroke-linecap="square" width="338" stroke-miterlimit="10" stroke-opacity="1" shape-rendering="auto" fill="black" stroke-dasharray="none" font-weight="normal" stroke-width="1" height="450" font-family="'Dialog'" font-style="normal" stroke-linejoin="miter" font-size="12px" stroke-dashoffset="0" image-rendering="auto">
  <!--Generated by ySVG 2.5-->
  <defs id="genericDefs"/>
  <g>
    <defs id="defs1">
      <linearGradient x1="448.27" gradientUnits="userSpaceOnUse" x2="579.27" y1="600.73" y2="630.73" id="linearGradient1" spreadMethod="reflect">
        <stop stop-opacity="1" stop-color="rgb(232,238,247)" offset="0%"/>
        <stop stop-opacity="1" stop-color="rgb(183,201,227)" offset="100%"/>
      </linearGradient>
      <linearGradient x1="448.27" gradientUnits="userSpaceOnUse" x2="579.27" y1="570.73" y2="600.73" id="linearGradient2" spreadMethod="reflect">
        <stop stop-opacity="1" stop-color="rgb(232,238,247)" offset="0%"/>
        <stop stop-opacity="1" stop-color="rgb(183,201,227)" offset="100%"/>
      </linearGradient>
      <linearGradient x1="448.27" gradientUnits="userSpaceOnUse" x2="579.27" y1="503.26" y2="533.26" id="linearGradient3" spreadMethod="reflect">
        <stop stop-opacity="1" stop-color="rgb(232,238,247)" offset="0%"/>
        <stop stop-opacity="1" stop-color="rgb(183,201,227)" offset="100%"/>
      </linearGradient>
      <linearGradient x1="448.27" gradientUnits="userSpaceOnUse" x2="579.27" y1="473.26" y2="503.26" id="linearGradient4" spreadMethod="reflect">
        <stop stop-opacity="1" stop-color="rgb(232,238,247)" offset="0%"/>
        <stop stop-opacity="1" stop-color="rgb(183,201,227)" offset="100%"/>
      </linearGradient>
      <linearGradient x1="448.27" gradientUnits="userSpaceOnUse" x2="579.27" y1="668.2" y2="698.2" id="linearGradient5" spreadMethod="reflect">
        <stop stop-opacity="1" stop-color="rgb(232,238,247)" offset="0%"/>
        <stop stop-opacity="1" stop-color="rgb(183,201,227)" offset="100%"/>
      </linearGradient>
      <linearGradient x1="448.27" gradientUnits="userSpaceOnUse" x2="579.27" y1="698.2" y2="728.2" id="linearGradient6" spreadMethod="reflect">
        <stop stop-opacity="1" stop-color="rgb(232,238,247)" offset="0%"/>
        <stop stop-opacity="1" stop-color="rgb(183,201,227)" offset="100%"/>
      </linearGradient>
      <linearGradient x1="448.27" gradientUnits="userSpaceOnUse" x2="579.27" y1="728.2" y2="758.2" id="linearGradient7" spreadMethod="reflect">
        <stop stop-opacity="1" stop-color="rgb(232,238,247)" offset="0%"/>
        <stop stop-opacity="1" stop-color="rgb(183,201,227)" offset="100%"/>
      </linearGradient>
      <linearGradient x1="448.27" gradientUnits="userSpaceOnUse" x2="579.27" y1="758.2" y2="788.2" id="linearGradient8" spreadMethod="reflect">
        <stop stop-opacity="1" stop-color="rgb(232,238,247)" offset="0%"/>
        <stop stop-opacity="1" stop-color="rgb(183,201,227)" offset="100%"/>
      </linearGradient>
      <linearGradient x1="448.27" gradientUnits="userSpaceOnUse" x2="579.27" y1="788.2" y2="818.2" id="linearGradient9" spreadMethod="reflect">
        <stop stop-opacity="1" stop-color="rgb(232,238,247)" offset="0%"/>
        <stop stop-opacity="1" stop-color="rgb(183,201,227)" offset="100%"/>
      </linearGradient>
      <clipPath clipPathUnits="userSpaceOnUse" id="clipPath1">
        <path d="M0 0 L338 0 L338 450 L0 450 L0 0 Z"/>
      </clipPath>
      <clipPath clipPathUnits="userSpaceOnUse" id="clipPath2">
        <path d="M352 384 L690 384 L690 834 L352 834 L352 384 Z"/>
      </clipPath>
    </defs>
    <g fill="white" text-rendering="geometricPrecision" shape-rendering="geometricPrecision" transform="translate(-352,-384)" stroke="white">
      <rect x="352" width="338" height="450" y="384" clip-path="url(#clipPath2)" stroke="none"/>
    </g>
    <g fill="url(#linearGradient1)" text-rendering="geometricPrecision" shape-rendering="geometricPrecision" transform="matrix(1,0,0,1,-352,-384)" stroke="url(#linearGradient1)">
      <path d="M448.27 600.73 L579.27 600.73 L579.27 630.73 L448.27 630.73 Z" clip-path="url(#clipPath2)" stroke="none"/>
    </g>
    <g text-rendering="geometricPrecision" stroke-miterlimit="1.45" shape-rendering="geometricPrecision" transform="matrix(1,0,0,1,-352,-384)" stroke-linecap="butt">
      <path fill="none" d="M448.27 600.73 L579.27 600.73 L579.27 630.73 L448.27 630.73 Z" clip-path="url(#clipPath2)"/>
      <text x="506.1821" xml:space="preserve" y="620.2651" font-family="sans-serif" clip-path="url(#clipPath2)" stroke="none">30</text>
    </g>
    <g fill="url(#linearGradient2)" text-rendering="geometricPrecision" shape-rendering="geometricPrecision" transform="matrix(1,0,0,1,-352,-384)" stroke="url(#linearGradient2)">
      <path d="M448.27 570.73 L579.27 570.73 L579.27 600.73 L448.27 600.73 Z" clip-path="url(#clipPath2)" stroke="none"/>
    </g>
    <g text-rendering="geometricPrecision" stroke-miterlimit="1.45" shape-rendering="geometricPrecision" transform="matrix(1,0,0,1,-352,-384)" stroke-linecap="butt">
      <path fill="none" d="M448.27 570.73 L579.27 570.73 L579.27 600.73 L448.27 600.73 Z" clip-path="url(#clipPath2)"/>
      <text x="506.1821" xml:space="preserve" y="590.2651" font-family="sans-serif" clip-path="url(#clipPath2)" stroke="none">20</text>
    </g>
    <g fill="url(#linearGradient3)" text-rendering="geometricPrecision" shape-rendering="geometricPrecision" transform="matrix(1,0,0,1,-352,-384)" stroke="url(#linearGradient3)">
      <path d="M448.27 503.26 L579.27 503.26 L579.27 533.26 L448.27 533.26 Z" clip-path="url(#clipPath2)" stroke="none"/>
    </g>
    <g text-rendering="geometricPrecision" stroke-miterlimit="1.45" shape-rendering="geometricPrecision" transform="matrix(1,0,0,1,-352,-384)" stroke-linecap="butt">
      <path fill="none" d="M448.27 503.26 L579.27 503.26 L579.27 533.26 L448.27 533.26 Z" clip-path="url(#clipPath2)"/>
      <text x="506.1821" xml:space="preserve" y="522.7952" font-family="sans-serif" clip-path="url(#clipPath2)" stroke="none">10</text>
    </g>
    <g fill="url(#linearGradient4)" text-rendering="geometricPrecision" shape-rendering="geometricPrecision" transform="matrix(1,0,0,1,-352,-384)" stroke="url(#linearGradient4)">
      <path d="M448.27 473.26 L579.27 473.26 L579.27 503.26 L448.27 503.26 Z" clip-path="url(#clipPath2)" stroke="none"/>
    </g>
    <g text-rendering="geometricPrecision" stroke-miterlimit="1.45" shape-rendering="geometricPrecision" transform="matrix(1,0,0,1,-352,-384)" stroke-linecap="butt">
      <path fill="none" d="M448.27 473.26 L579.27 473.26 L579.27 503.26 L448.27 503.26 Z" clip-path="url(#clipPath2)"/>
      <text x="497.352" xml:space="preserve" y="492.7952" font-family="sans-serif" clip-path="url(#clipPath2)" stroke="none">"tutu"</text>
    </g>
    <g font-size="16px" stroke-linecap="butt" transform="matrix(1,0,0,1,-352,-384)" text-rendering="geometricPrecision" font-family="sans-serif" shape-rendering="geometricPrecision" stroke-miterlimit="1.45">
      <text x="405.842" xml:space="preserve" y="494.3069" clip-path="url(#clipPath2)" stroke="none">@t1</text>
    </g>
    <g font-size="16px" stroke-linecap="butt" transform="matrix(1,0,0,1,-352,-384)" text-rendering="geometricPrecision" font-family="sans-serif" shape-rendering="geometricPrecision" stroke-miterlimit="1.45">
      <text x="478.4458" xml:space="preserve" y="455.025" clip-path="url(#clipPath2)" stroke="none">Contenu </text>
      <text x="588.9669" xml:space="preserve" y="443.965" clip-path="url(#clipPath2)" stroke="none">Adresses /</text>
      <text x="588.4278" xml:space="preserve" y="462.8087" clip-path="url(#clipPath2)" stroke="none">Références</text>
      <text x="398.3889" xml:space="preserve" y="455.4469" clip-path="url(#clipPath2)" stroke="none">Noms</text>
      <text x="429.9622" xml:space="preserve" y="418.5269" font-weight="bold" clip-path="url(#clipPath2)" stroke="none">Mémoire de l'ordinateur</text>
      <text x="588.5566" xml:space="preserve" y="494.3069" clip-path="url(#clipPath2)" stroke="none">0x80ff4f1</text>
      <text x="588.5566" xml:space="preserve" y="524.3069" clip-path="url(#clipPath2)" stroke="none">0x80ff4f2</text>
      <text x="589.1972" xml:space="preserve" y="621.7769" clip-path="url(#clipPath2)" stroke="none">0xff15af6</text>
      <text x="589.1972" xml:space="preserve" y="591.7769" clip-path="url(#clipPath2)" stroke="none">0xff15af5</text>
      <text x="511.2387" xml:space="preserve" y="542.205" clip-path="url(#clipPath2)" stroke="none">.</text>
      <text x="511.2387" xml:space="preserve" y="561.0488" clip-path="url(#clipPath2)" stroke="none">.</text>
      <text x="405.842" xml:space="preserve" y="591.7769" clip-path="url(#clipPath2)" stroke="none">@t2</text>
      <text x="455.2784" xml:space="preserve" font-size="10px" y="486.9593" clip-path="url(#clipPath2)" stroke="none">0</text>
      <text x="455.6384" xml:space="preserve" font-size="10px" y="517.7654" clip-path="url(#clipPath2)" stroke="none">1</text>
    </g>
    <g fill="url(#linearGradient5)" text-rendering="geometricPrecision" shape-rendering="geometricPrecision" transform="matrix(1,0,0,1,-352,-384)" stroke="url(#linearGradient5)">
      <path d="M448.27 668.2 L579.27 668.2 L579.27 698.2 L448.27 698.2 Z" clip-path="url(#clipPath2)" stroke="none"/>
    </g>
    <g text-rendering="geometricPrecision" stroke-miterlimit="1.45" shape-rendering="geometricPrecision" transform="matrix(1,0,0,1,-352,-384)" stroke-linecap="butt">
      <path fill="none" d="M448.27 668.2 L579.27 668.2 L579.27 698.2 L448.27 698.2 Z" clip-path="url(#clipPath2)"/>
      <text x="509.976" xml:space="preserve" y="687.7352" font-family="sans-serif" clip-path="url(#clipPath2)" stroke="none">2</text>
    </g>
    <g font-size="16px" stroke-linecap="butt" transform="matrix(1,0,0,1,-352,-384)" text-rendering="geometricPrecision" font-family="sans-serif" shape-rendering="geometricPrecision" stroke-miterlimit="1.45">
      <text x="586.4394" xml:space="preserve" y="689.2469" clip-path="url(#clipPath2)" stroke="none">0xff75121</text>
      <text x="586.4394" xml:space="preserve" y="719.2469" clip-path="url(#clipPath2)" stroke="none">0xff75122</text>
      <text x="511.2387" xml:space="preserve" y="640.505" clip-path="url(#clipPath2)" stroke="none">.</text>
      <text x="511.2387" xml:space="preserve" y="659.3488" clip-path="url(#clipPath2)" stroke="none">.</text>
      <text x="410.9006" xml:space="preserve" y="689.2469" clip-path="url(#clipPath2)" stroke="none">@t</text>
    </g>
    <g fill="url(#linearGradient6)" text-rendering="geometricPrecision" shape-rendering="geometricPrecision" transform="matrix(1,0,0,1,-352,-384)" stroke="url(#linearGradient6)">
      <path d="M448.27 698.2 L579.27 698.2 L579.27 728.2 L448.27 728.2 Z" clip-path="url(#clipPath2)" stroke="none"/>
    </g>
    <g text-rendering="geometricPrecision" stroke-miterlimit="1.45" shape-rendering="geometricPrecision" transform="matrix(1,0,0,1,-352,-384)" stroke-linecap="butt">
      <path fill="none" d="M448.27 698.2 L579.27 698.2 L579.27 728.2 L448.27 728.2 Z" clip-path="url(#clipPath2)"/>
      <text x="484.9829" xml:space="preserve" y="717.7352" font-family="sans-serif" clip-path="url(#clipPath2)" stroke="none">0xff15af5</text>
    </g>
    <g fill="url(#linearGradient7)" text-rendering="geometricPrecision" shape-rendering="geometricPrecision" transform="matrix(1,0,0,1,-352,-384)" stroke="url(#linearGradient7)">
      <path d="M448.27 728.2 L579.27 728.2 L579.27 758.2 L448.27 758.2 Z" clip-path="url(#clipPath2)" stroke="none"/>
    </g>
    <g text-rendering="geometricPrecision" stroke-miterlimit="1.45" shape-rendering="geometricPrecision" transform="matrix(1,0,0,1,-352,-384)" stroke-linecap="butt">
      <path fill="none" d="M448.27 728.2 L579.27 728.2 L579.27 758.2 L448.27 758.2 Z" clip-path="url(#clipPath2)"/>
      <text x="484.5024" xml:space="preserve" y="747.7352" font-family="sans-serif" clip-path="url(#clipPath2)" stroke="none">0x80ff4f1</text>
    </g>
    <g fill="url(#linearGradient8)" text-rendering="geometricPrecision" shape-rendering="geometricPrecision" transform="matrix(1,0,0,1,-352,-384)" stroke="url(#linearGradient8)">
      <path d="M448.27 758.2 L579.27 758.2 L579.27 788.2 L448.27 788.2 Z" clip-path="url(#clipPath2)" stroke="none"/>
    </g>
    <g text-rendering="geometricPrecision" stroke-miterlimit="1.45" shape-rendering="geometricPrecision" transform="matrix(1,0,0,1,-352,-384)" stroke-linecap="butt">
      <path fill="none" d="M448.27 758.2 L579.27 758.2 L579.27 788.2 L448.27 788.2 Z" clip-path="url(#clipPath2)"/>
      <text x="503.7007" xml:space="preserve" y="777.7352" font-family="sans-serif" clip-path="url(#clipPath2)" stroke="none">"et"</text>
    </g>
    <g fill="url(#linearGradient9)" text-rendering="geometricPrecision" shape-rendering="geometricPrecision" transform="matrix(1,0,0,1,-352,-384)" stroke="url(#linearGradient9)">
      <path d="M448.27 788.2 L579.27 788.2 L579.27 818.2 L448.27 818.2 Z" clip-path="url(#clipPath2)" stroke="none"/>
    </g>
    <g text-rendering="geometricPrecision" stroke-miterlimit="1.45" shape-rendering="geometricPrecision" transform="matrix(1,0,0,1,-352,-384)" stroke-linecap="butt">
      <path fill="none" d="M448.27 788.2 L579.27 788.2 L579.27 818.2 L448.27 818.2 Z" clip-path="url(#clipPath2)"/>
      <text x="506.1821" xml:space="preserve" y="807.7352" font-family="sans-serif" clip-path="url(#clipPath2)" stroke="none">20</text>
    </g>
    <g font-size="16px" stroke-linecap="butt" transform="matrix(1,0,0,1,-352,-384)" text-rendering="geometricPrecision" font-family="sans-serif" shape-rendering="geometricPrecision" stroke-miterlimit="1.45">
      <text x="586.4394" xml:space="preserve" y="749.2469" clip-path="url(#clipPath2)" stroke="none">0xff75123</text>
      <text x="586.4394" xml:space="preserve" y="779.2469" clip-path="url(#clipPath2)" stroke="none">0xff75124</text>
      <text x="586.4394" xml:space="preserve" y="809.2469" clip-path="url(#clipPath2)" stroke="none">0xff75125</text>
      <text x="455.2343" xml:space="preserve" font-size="10px" y="584.9075" clip-path="url(#clipPath2)" stroke="none">0</text>
      <text x="455.2573" xml:space="preserve" font-size="10px" y="682.8771" clip-path="url(#clipPath2)" stroke="none">0</text>
      <text x="455.3409" xml:space="preserve" font-size="10px" y="615.0643" clip-path="url(#clipPath2)" stroke="none">1</text>
      <text x="454.9584" xml:space="preserve" font-size="10px" y="712.5375" clip-path="url(#clipPath2)" stroke="none">1</text>
      <text x="455.3395" xml:space="preserve" font-size="10px" y="742.9427" clip-path="url(#clipPath2)" stroke="none">2</text>
      <text x="455.3745" xml:space="preserve" font-size="10px" y="772.8975" clip-path="url(#clipPath2)" stroke="none">3</text>
      <text x="455.4305" xml:space="preserve" font-size="10px" y="802.8651" clip-path="url(#clipPath2)" stroke="none">4</text>
      <path fill="none" d="M448.2605 713.2 L423.77 646.73 L445.2799 593.154" clip-path="url(#clipPath2)"/>
      <path d="M448.2605 585.73 L439.1496 595.0031 L444.9073 594.082 L448.4296 598.7289 Z" clip-path="url(#clipPath2)" stroke="none"/>
      <path fill="none" d="M448.2605 743.2 L367.77 654.73 L444.7781 495.4623" clip-path="url(#clipPath2)"/>
      <path d="M448.2605 488.26 L438.5354 496.8869 L444.3428 496.3626 L447.5383 501.2399 Z" clip-path="url(#clipPath2)" stroke="none"/>
    </g>
  </g>
</svg>
