<?xml version="1.0" encoding="UTF-8" standalone="no"?>
<svg
   xmlns:dc="http://purl.org/dc/elements/1.1/"
   xmlns:cc="http://creativecommons.org/ns#"
   xmlns:rdf="http://www.w3.org/1999/02/22-rdf-syntax-ns#"
   xmlns:svg="http://www.w3.org/2000/svg"
   xmlns="http://www.w3.org/2000/svg"
   xmlns:sodipodi="http://sodipodi.sourceforge.net/DTD/sodipodi-0.dtd"
   xmlns:inkscape="http://www.inkscape.org/namespaces/inkscape"
   version="1.1"
   width="473.22794"
   height="126.15807"
   id="svg2"
   inkscape:version="0.48.2 r9819"
   sodipodi:docname="meuh.svg">
  <sodipodi:namedview
     pagecolor="#ffffff"
     bordercolor="#666666"
     borderopacity="1"
     objecttolerance="10"
     gridtolerance="10"
     guidetolerance="10"
     inkscape:pageopacity="0"
     inkscape:pageshadow="2"
     inkscape:window-width="1161"
     inkscape:window-height="726"
     id="namedview60"
     showgrid="false"
     fit-margin-top="0"
     fit-margin-left="0"
     fit-margin-right="0"
     fit-margin-bottom="0"
     inkscape:zoom="1.2454195"
     inkscape:cx="423.06489"
     inkscape:cy="31.825037"
     inkscape:window-x="256"
     inkscape:window-y="31"
     inkscape:window-maximized="0"
     inkscape:current-layer="svg2" />
  <defs
     id="defs4">
    <style
       type="text/css"
       id="style6">svg{background-color:#fff}text,tspan{font:12px Arial}path{fill-opacity:0;stroke-width:2px;stroke:#000}circle{fill:#6b6659;stroke-width:2px;stroke:#000}.anchor text,.any-character text{fill:#fff}.anchor rect,.any-character rect{fill:#6b6659}.escape text,.charset-escape text,.literal text{fill:#000}.escape rect,.charset-escape rect{fill:#bada55}.literal rect{fill:#dae9e5}.charset .charset-box{fill:#cbcbba}.subexp .subexp-label tspan,.charset .charset-label tspan,.match-fragment .repeat-label tspan{font-size:10px}.subexp .subexp-label tspan,.charset .charset-label tspan{dominant-baseline:text-after-edge}.subexp .subexp-box{stroke:#908c83;stroke-dasharray:6,2;stroke-width:2px;fill-opacity:0}.quote{fill:#908c83}
      </style>
  </defs>
  <metadata
     id="metadata8">
    <rdf:rdf>
      <cc:license
         rdf:about="http://creativecommons.org/licenses/by/3.0/">
        <cc:permits
           rdf:resource="http://creativecommons.org/ns#Reproduction" />
        <cc:permits
           rdf:resource="http://creativecommons.org/ns#Distribution" />
        <cc:requires
           rdf:resource="http://creativecommons.org/ns#Notice" />
        <cc:requires
           rdf:resource="http://creativecommons.org/ns#Attribution" />
        <cc:permits
           rdf:resource="http://creativecommons.org/ns#DerivativeWorks" />
      </cc:license>
    </rdf:rdf>
    <rdf:RDF>
      <cc:Work
         rdf:about="">
        <dc:format>image/svg+xml</dc:format>
        <dc:type
           rdf:resource="http://purl.org/dc/dcmitype/StillImage" />
        <dc:title></dc:title>
      </cc:Work>
    </rdf:RDF>
  </metadata>
  <desc
     id="desc10">Created with Snap</desc>
  <g
     id="g3111"
     transform="matrix(1.6745515,0,0,1.6745515,-15.070964,16.767927)">
    <path
       style="fill-opacity:0;stroke:#000000;stroke-width:2px"
       inkscape:connector-curvature="0"
       id="path16"
       d="m 66.3125,22 h 20" />
    <rect
       style="fill:#dae9e5"
       y="10"
       x="25"
       id="rect22"
       ry="1.7915245"
       rx="1.7915245"
       height="24"
       width="41.3125" />
    <text
       style="fill:#000000"
       id="text24"
       y="27"
       x="26">
      <tspan
         style="fill:#908c83"
         id="tspan26"
         class="quote">“</tspan>
      <tspan
         id="tspan28">meu</tspan>
      <tspan
         style="fill:#908c83"
         id="tspan30"
         class="quote">”</tspan>
    </text>
    <path
       d="m 86.3125,22 q -10,0 -10,10 v 2 q 0,10 10,10 h 24.64063 q 10,0 10,-10 v -2 q 0,-10 -10,-10 m 10,15 5,-5 m -5,5 -5,-5"
       id="path34"
       inkscape:connector-curvature="0"
       style="fill-opacity:0;stroke:#000000;stroke-width:2px" />
    <rect
       width="24.640625"
       height="24"
       rx="1.7915245"
       ry="1.7915245"
       id="rect40"
       x="86.3125"
       y="10"
       style="fill:#dae9e5" />
    <text
       x="89.3125"
       y="27"
       id="text42"
       style="fill:#000000">
      <tspan
         class="quote"
         id="tspan44"
         style="fill:#908c83">“</tspan>
      <tspan
         id="tspan46">h</tspan>
      <tspan
         class="quote"
         id="tspan48"
         style="fill:#908c83">”</tspan>
    </text>
    <text
       x="93.734398"
       y="55"
       class="repeat-label"
       id="text50">
      <tspan
         id="tspan52"
         style="font-size:10px">2 times</tspan>
    </text>
    <path
       d="M 25,22 H 15 m 95.95313,0 h 25.00002"
       id="path54"
       inkscape:connector-curvature="0"
       style="fill-opacity:0;stroke:#000000;stroke-width:2px" />
    <circle
       transform="translate(15,10)"
       cx="0"
       cy="12"
       r="5"
       id="circle56"
       d="m 5,12 c 0,2.761424 -2.2385763,5 -5,5 -2.7614237,0 -5,-2.238576 -5,-5 0,-2.7614237 2.2385763,-5 5,-5 2.7614237,0 5,2.2385763 5,5 z"
       sodipodi:cx="0"
       sodipodi:cy="12"
       sodipodi:rx="5"
       sodipodi:ry="5"
       style="fill:#6b6659;stroke:#000000;stroke-width:2px" />
    <circle
       transform="translate(15,10)"
       cx="120.95315"
       cy="12"
       r="5"
       id="circle58"
       d="m 125.95315,12 c 0,2.761424 -2.23858,5 -5,5 -2.76143,0 -5,-2.238576 -5,-5 0,-2.7614237 2.23857,-5 5,-5 2.76142,0 5,2.2385763 5,5 z"
       sodipodi:cx="120.95315"
       sodipodi:cy="12"
       sodipodi:rx="5"
       sodipodi:ry="5"
       style="fill:#6b6659;stroke:#000000;stroke-width:2px" />
  </g>
  <g
     transform="matrix(1.6745515,0,0,1.6745515,248.8642,-18.090482)"
     id="g3080">
    <path
       style="fill-opacity:0;stroke:#000000;stroke-width:2px"
       inkscape:connector-curvature="0"
       id="path16-7"
       d="M 35,43 Q 25,43 25,53 v 12 q 0,10 10,10 h 67.98438 q 10,0 10,-10 V 53 q 0,-10 -10,-10 m 10,15 5,-5 m -5,5 -5,-5" />
    <rect
       rx="1.7915245"
       ry="1.7915245"
       class="subexp-box"
       width="67.984375"
       height="44"
       id="rect20"
       x="35"
       y="21"
       style="fill-opacity:0;stroke:#908c83;stroke-width:2px;stroke-dasharray:6, 2" />
    <text
       x="33.961864"
       y="18.09322"
       class="subexp-label"
       id="text22">
      <tspan
         id="tspan24"
         style="font-size:10px">group #1</tspan>
    </text>
    <rect
       width="47.984375"
       height="24"
       rx="1.7915245"
       ry="1.7915245"
       id="rect30"
       x="45"
       y="31"
       style="fill:#dae9e5" />
    <text
       x="45.432205"
       y="47.584747"
       id="text32"
       style="fill:#000000">
      <tspan
         class="quote"
         id="tspan34"
         style="fill:#908c83">“</tspan>
      <tspan
         id="tspan36">meuh</tspan>
      <tspan
         class="quote"
         id="tspan38"
         style="fill:#908c83">”</tspan>
    </text>
    <text
       id="text40"
       class="repeat-label"
       y="86"
       x="85.765602">
      <tspan
         style="font-size:10px"
         id="tspan42">2 times</tspan>
    </text>
    <path
       d="M 45,43 H 15 m 77.984375,0 h 35.000005"
       id="path44"
       inkscape:connector-curvature="0"
       style="fill-opacity:0;stroke:#000000;stroke-width:2px" />
    <circle
       transform="translate(15,10)"
       cx="0"
       cy="33"
       r="5"
       id="circle46"
       d="m 5,33 c 0,2.761424 -2.2385763,5 -5,5 -2.7614237,0 -5,-2.238576 -5,-5 0,-2.761424 2.2385763,-5 5,-5 2.7614237,0 5,2.238576 5,5 z"
       sodipodi:cx="0"
       sodipodi:cy="33"
       sodipodi:rx="5"
       sodipodi:ry="5"
       style="fill:#6b6659;stroke:#000000;stroke-width:2px" />
    <circle
       transform="translate(15,10)"
       cx="112.98438"
       cy="33"
       r="5"
       id="circle48"
       d="m 117.98438,33 c 0,2.761424 -2.23857,5 -5,5 -2.76142,0 -5,-2.238576 -5,-5 0,-2.761424 2.23858,-5 5,-5 2.76143,0 5,2.238576 5,5 z"
       sodipodi:cx="112.98438"
       sodipodi:cy="33"
       sodipodi:rx="5"
       sodipodi:ry="5"
       style="fill:#6b6659;stroke:#000000;stroke-width:2px" />
  </g>
</svg>
